<svg xmlns="http://www.w3.org/2000/svg"
   xmlns:xlink="http://www.w3.org/1999/xlink"
   version="1.1"
   id="dfe" width="100%" height="100%"  viewBox="-6 -6 1318 358">
<desc>
XCircuit Version 3.8
File "dfe.ps" Page 2
</desc>
<g stroke="black">
<g transform="matrix(   1    0   -0    1 976 346)" fill="#000000" >
<text stroke="none" font-family="Helvetica" font-size="40" ><tspan x="0" y="0">Main Sample</tspan>
</text></g>
<path d="M352,154 L352,282 592,282 592,154 z" fill="none" stroke-width="2" stroke-linejoin="bevel" stroke-linecap="round" stroke="#000000" />
<g transform="matrix(   1    0   -0    1 384 218)" fill="#000000" >
<text stroke="none" font-family="Helvetica" font-size="40" ><tspan x="0" y="0">CHANNEL</tspan>
</text></g>
<path d="M0,282 L256,282 224,282 " fill="none" stroke-width="2" stroke-linejoin="bevel" stroke-linecap="round" stroke="#000000" />
<path d="M128,282 L128,122 " fill="none" stroke-width="4" stroke-linejoin="bevel" stroke-linecap="round" stroke="#000000" />
<path d="M136,134 C131,124 131,121 128,106 C125,121 125,124 120,134 C126,132 130,132 136,134 " fill="#000000" stroke="none" />
<path d="M256,218 L352,218 " fill="none" stroke-width="2" stroke-linejoin="bevel" stroke-linecap="round" stroke="#000000" />
<path d="M336,210 L352,218 336,226 z" fill="#000000" stroke-width="2" stroke-linejoin="bevel" stroke-linecap="round" stroke="#000000" />
<path d="M592,218 L688,218 " fill="none" stroke-width="2" stroke-linejoin="bevel" stroke-linecap="round" stroke="#000000" />
<path d="M672,210 L688,218 672,226 z" fill="#000000" stroke-width="2" stroke-linejoin="bevel" stroke-linecap="round" stroke="#000000" />
<path d="M768,266 C848,-102 848,250 1024,250 " fill="none" stroke-width="2" stroke-linejoin="bevel" stroke-linecap="round" stroke="#000000" />
<path d="M1024,250 C1152,298 1200,282 1248,282 " fill="none" stroke-width="2" stroke-linejoin="bevel" stroke-linecap="round" stroke="#000000" />
<ellipse cx="768" cy="266" rx="6" ry="6" fill="#000000" stroke="none" />
<ellipse cx="832" cy="106" rx="6" ry="6" fill="#000000" stroke="none" />
<ellipse cx="896" cy="170" rx="6" ry="6" fill="#000000" stroke="none" />
<ellipse cx="960" cy="234" rx="6" ry="6" fill="#000000" stroke="none" />
<ellipse cx="1024" cy="250" rx="6" ry="6" fill="#000000" stroke="none" />
<ellipse cx="1088" cy="266" rx="6" ry="6" fill="#000000" stroke="none" />
<path d="M768,282 L1264,282 " fill="none" stroke-width="2" stroke-linejoin="bevel" stroke-linecap="round" stroke="#000000" />
<path d="M1264,282 L1312,282 " fill="none" stroke-width="2" stroke-linejoin="bevel" stroke-linecap="round" stroke="#000000" />
<path d="M832,90 C848,26 880,26 896,26 " fill="none" stroke-width="2" stroke-linejoin="bevel" stroke-linecap="round" stroke="#000000" />
<path d="M832,61 C834,72 833,75 832,90 C839,76 840,73 847,65 C841,65 837,64 832,61 " fill="#000000" stroke="none" />
<g transform="matrix(   1    0   -0    1 912  26)" fill="#000000" >
<text stroke="none" font-family="Helvetica" font-size="40" ><tspan x="0" y="0">Main Sample</tspan>
</text></g>
<path d="M896,154 C912,154 896,122 912,122 " fill="none" stroke-width="2" stroke-linejoin="bevel" stroke-linecap="round" stroke="#000000" />
<path d="M992,122 C1008,122 1008,122 1008,106 " fill="none" stroke-width="2" stroke-linejoin="bevel" stroke-linecap="round" stroke="#000000" />
<path d="M1007,106 C1008,122 1008,122 1023,121 " fill="none" stroke-width="2" stroke-linejoin="bevel" stroke-linecap="round" stroke="#000000" />
<path d="M1024,122 L1104,122 " fill="none" stroke-width="2" stroke-linejoin="bevel" stroke-linecap="round" stroke="#000000" />
<path d="M1104,122 C1120,122 1104,154 1120,154 " fill="none" stroke-width="2" stroke-linejoin="bevel" stroke-linecap="round" stroke="#000000" />
<g transform="matrix(   1    0   -0    1 896  90)" fill="#000000" >
<text stroke="none" font-family="Helvetica" font-size="40" ><tspan x="0" y="0">Post Cursors</tspan>
</text></g>
<g transform="matrix(   1    0   -0    1  64  90)" fill="#000000" >
<text stroke="none" font-family="Helvetica" font-size="40" ><tspan x="0" y="0">Impulse</tspan>
</text></g>
<ellipse cx="896" cy="282" rx="6" ry="6" fill="#ff0000" stroke="none" />
<ellipse cx="960" cy="282" rx="6" ry="6" fill="#ff0000" stroke="none" />
<path d="M768,266 C848,-102 864,250 896,282 " fill="none" stroke-width="2" stroke-linejoin="bevel" stroke-linecap="round" stroke="#ff0000" />
<ellipse cx="1088" cy="282" rx="6" ry="6" fill="#ff0000" stroke="none" />
<ellipse cx="1024" cy="282" rx="6" ry="6" fill="#ff0000" stroke="none" />
<path d="M896,282 C912,282 1072,282 1088,282 " fill="none" stroke-width="2" stroke-linejoin="bevel" stroke-linecap="round" stroke="#ff0000" />
<path d="M912,122 L992,122 " fill="none" stroke-width="2" stroke-linejoin="bevel" stroke-linecap="round" stroke="#000000" />
<g transform="matrix(   1    0   -0    1 1024 218)" fill="#ff0000" >
<text stroke="none" font-family="Helvetica" font-size="40" ><tspan x="0" y="0">DFE Equalized</tspan>
</text></g>
</g>
</svg>
