<svg xmlns="http://www.w3.org/2000/svg"
   xmlns:xlink="http://www.w3.org/1999/xlink"
   version="1.1"
   id="dfe" width="100%" height="100%"  viewBox="-6 -6 1318 294">
<desc>
XCircuit Version 3.8
File "dfe.ps" Page 5
</desc>
<g stroke="black">
<path d="M352,154 L352,282 592,282 592,154 z" fill="none" stroke-width="2" stroke-linejoin="bevel" stroke-linecap="round" stroke="#000000" />
<g transform="matrix(   1    0   -0    1 368 218)" fill="#000000" >
<text stroke="none" font-family="Helvetica" font-size="40" ><tspan x="0" y="0">CHANNEL</tspan>
</text></g>
<path d="M0,282 L256,282 224,282 " fill="none" stroke-width="2" stroke-linejoin="bevel" stroke-linecap="round" stroke="#000000" />
<path d="M128,282 L128,122 " fill="none" stroke-width="4" stroke-linejoin="bevel" stroke-linecap="round" stroke="#000000" />
<path d="M136,134 C131,124 131,121 128,106 C125,121 125,124 120,134 C126,132 130,132 136,134 " fill="#000000" stroke="none" />
<path d="M256,218 L352,218 " fill="none" stroke-width="2" stroke-linejoin="bevel" stroke-linecap="round" stroke="#000000" />
<path d="M336,210 L352,218 336,226 z" fill="#000000" stroke-width="2" stroke-linejoin="bevel" stroke-linecap="round" stroke="#000000" />
<path d="M592,218 L688,218 " fill="none" stroke-width="2" stroke-linejoin="bevel" stroke-linecap="round" stroke="#000000" />
<path d="M672,210 L688,218 672,226 z" fill="#000000" stroke-width="2" stroke-linejoin="bevel" stroke-linecap="round" stroke="#000000" />
<path d="M768,266 C848,-102 816,266 992,266 " fill="none" stroke-width="2" stroke-linejoin="bevel" stroke-linecap="round" stroke="#000000" />
<path d="M992,266 C1008,266 1264,282 1264,282 " fill="none" stroke-width="2" stroke-linejoin="bevel" stroke-linecap="round" stroke="#000000" />
<ellipse cx="768" cy="266" rx="6" ry="6" fill="#000000" stroke="none" />
<ellipse cx="816" cy="106" rx="6" ry="6" fill="#000000" stroke="none" />
<ellipse cx="784" cy="186" rx="6" ry="6" fill="#000000" stroke="none" />
<ellipse cx="880" cy="186" rx="6" ry="6" fill="#000000" stroke="none" />
<ellipse cx="928" cy="250" rx="6" ry="6" fill="#000000" stroke="none" />
<ellipse cx="1008" cy="266" rx="6" ry="6" fill="#000000" stroke="none" />
<ellipse cx="1088" cy="266" rx="6" ry="6" fill="#000000" stroke="none" />
<ellipse cx="1184" cy="282" rx="6" ry="6" fill="#000000" stroke="none" />
<path d="M768,282 L1264,282 " fill="none" stroke-width="2" stroke-linejoin="bevel" stroke-linecap="round" stroke="#000000" />
<path d="M1264,282 L1312,282 " fill="none" stroke-width="2" stroke-linejoin="bevel" stroke-linecap="round" stroke="#000000" />
<path d="M832,90 C848,26 880,26 896,26 " fill="none" stroke-width="2" stroke-linejoin="bevel" stroke-linecap="round" stroke="#000000" />
<path d="M832,61 C834,72 833,75 832,90 C839,76 840,73 847,65 C841,65 837,64 832,61 " fill="#000000" stroke="none" />
<g transform="matrix(   1    0   -0    1 912  26)" fill="#000000" >
<text stroke="none" font-family="Helvetica" font-size="40" ><tspan x="0" y="0">Main Sample</tspan>
</text></g>
<path d="M880,170 C896,170 880,138 896,138 " fill="none" stroke-width="2" stroke-linejoin="bevel" stroke-linecap="round" stroke="#000000" />
<path d="M1024,138 C1040,138 1040,138 1040,122 " fill="none" stroke-width="2" stroke-linejoin="bevel" stroke-linecap="round" stroke="#000000" />
<path d="M1039,122 C1040,138 1040,138 1055,137 " fill="none" stroke-width="2" stroke-linejoin="bevel" stroke-linecap="round" stroke="#000000" />
<path d="M1056,138 L1184,138 " fill="none" stroke-width="2" stroke-linejoin="bevel" stroke-linecap="round" stroke="#000000" />
<path d="M896,138 L1024,138 " fill="none" stroke-width="2" stroke-linejoin="bevel" stroke-linecap="round" stroke="#000000" />
<path d="M1184,138 C1200,138 1184,170 1200,170 " fill="none" stroke-width="2" stroke-linejoin="bevel" stroke-linecap="round" stroke="#000000" />
<g transform="matrix(   1    0   -0    1 944 106)" fill="#000000" >
<text stroke="none" font-family="Helvetica" font-size="40" ><tspan x="0" y="0">Post Cursors</tspan>
</text></g>
<path d="M773,186 C707,188 702,157 698,143 " fill="none" stroke-width="2" stroke-linejoin="bevel" stroke-linecap="round" stroke="#000000" />
<path d="M745,194 C755,189 758,189 773,186 C758,183 755,183 745,178 C747,184 747,188 745,194 " fill="#000000" stroke="none" />
<g transform="matrix(   1    0   -0    1 560 122)" fill="#000000" >
<text stroke="none" font-family="Helvetica" font-size="40" ><tspan x="0" y="0">Pre-Cursor</tspan>
</text></g>
<g transform="matrix(   1    0   -0    1  64  90)" fill="#000000" >
<text stroke="none" font-family="Helvetica" font-size="40" ><tspan x="0" y="0">Impulse</tspan>
</text></g>
</g>
</svg>
