<svg xmlns="http://www.w3.org/2000/svg"
   xmlns:xlink="http://www.w3.org/1999/xlink"
   version="1.1"
   id="dfe_arch" width="100%" height="100%"  viewBox="-6 -6 2630 1270">
<desc>
XCircuit Version 3.8
File "dfe_arch.ps" Page 7
</desc>
<g stroke="black">
<path d="M832,1024 L880,1024 " fill="none" stroke-width="4" stroke-linejoin="bevel" stroke-linecap="round" stroke="#000000" />
<path d="M832,1024 L800,1152 752,1152 " fill="none" stroke-width="4" stroke-linejoin="bevel" stroke-linecap="round" stroke="#000000" />
<g transform="matrix(   1    0   -0    1 848 1248)" fill="#000000" >
<text stroke="none" font-family="Helvetica"  font-weight="bold" font-size="40" ><tspan x="0" y="0">CLK</tspan>
</text></g>
<path d="M1022,1069 L719,1213 " fill="none" stroke-width="4" stroke-linejoin="bevel" stroke-linecap="round" stroke="#000000" />
<path d="M1022,1069 L719,926 " fill="none" stroke-width="4" stroke-linejoin="bevel" stroke-linecap="round" stroke="#000000" />
<path d="M719,1213 L719,926 " fill="none" stroke-width="4" stroke-linejoin="bevel" stroke-linecap="round" stroke="#000000" />
<path d="M768,1088 L880,1088 " fill="none" style="stroke-dasharray:12,12" stroke-width="4" stroke-linecap="butt" stroke-linejoin="bevel" stroke="#000000" />
<path d="M768,1088 L752,1088 " fill="none" style="stroke-dasharray:12,12" stroke-width="4" stroke-linecap="butt" stroke-linejoin="bevel" stroke="#000000" />
<path d="M720,1072 L688,1040 " fill="none" stroke-width="4" stroke-linejoin="bevel" stroke-linecap="round" stroke="#000000" />
<path d="M720,1072 L688,1104 " fill="none" stroke-width="4" stroke-linejoin="bevel" stroke-linecap="round" stroke="#000000" />
<path d="M448,1072 L720,1072 " fill="none" stroke-width="4" stroke-linejoin="bevel" stroke-linecap="round" stroke="#000000" />
<path d="M1024,1072 L1152,1072 " fill="none" stroke-width="4" stroke-linejoin="bevel" stroke-linecap="round" stroke="#000000" />
<path d="M1152,992 L1152,1152 1408,1152 1408,992 z" fill="none" stroke-width="4" stroke-linejoin="bevel" stroke-linecap="round" stroke="#000000" />
<path d="M1408,1072 L1536,1072 " fill="none" stroke-width="4" stroke-linejoin="bevel" stroke-linecap="round" stroke="#000000" />
<path d="M1792,1072 L1920,1072 " fill="none" stroke-width="4" stroke-linejoin="bevel" stroke-linecap="round" stroke="#000000" />
<path d="M2176,1072 L2304,1072 " fill="none" stroke-width="4" stroke-linejoin="bevel" stroke-linecap="round" stroke="#000000" />
<path d="M1536,992 L1536,1152 1792,1152 1792,992 z" fill="none" stroke-width="4" stroke-linejoin="bevel" stroke-linecap="round" stroke="#000000" />
<path d="M1920,992 L1920,1152 2176,1152 2176,992 z" fill="none" stroke-width="4" stroke-linejoin="bevel" stroke-linecap="round" stroke="#000000" />
<path d="M2304,992 L2304,1152 2560,1152 2560,992 z" fill="none" stroke-width="4" stroke-linejoin="bevel" stroke-linecap="round" stroke="#000000" />
<ellipse cx="304" cy="1072" rx="144" ry="144" fill="none" stroke-width="4" stroke-linejoin="bevel" stroke-linecap="round" stroke="#000000" />
<path d="M1184,768 L1392,672 " fill="none" stroke-width="4" stroke-linejoin="bevel" stroke-linecap="round" stroke="#000000" />
<path d="M1184,768 L1392,864 " fill="none" stroke-width="4" stroke-linejoin="bevel" stroke-linecap="round" stroke="#000000" />
<path d="M1392,672 L1392,864 " fill="none" stroke-width="4" stroke-linejoin="bevel" stroke-linecap="round" stroke="#000000" />
<path d="M1472,1072 L1472,784 1472,768 1392,768 " fill="none" stroke-width="4" stroke-linejoin="bevel" stroke-linecap="round" stroke="#000000" />
<path d="M1184,768 L624,768 400,960 " fill="none" stroke-width="4" stroke-linejoin="bevel" stroke-linecap="round" stroke="#000000" />
<path d="M1568,576 L1776,480 " fill="none" stroke-width="4" stroke-linejoin="bevel" stroke-linecap="round" stroke="#000000" />
<path d="M1568,576 L1776,672 " fill="none" stroke-width="4" stroke-linejoin="bevel" stroke-linecap="round" stroke="#000000" />
<path d="M1776,480 L1776,672 " fill="none" stroke-width="4" stroke-linejoin="bevel" stroke-linecap="round" stroke="#000000" />
<path d="M1856,880 L1856,592 1856,576 1776,576 " fill="none" stroke-width="4" stroke-linejoin="bevel" stroke-linecap="round" stroke="#000000" />
<path d="M1856,880 L1856,1072 " fill="none" stroke-width="4" stroke-linejoin="bevel" stroke-linecap="round" stroke="#000000" />
<path d="M1568,576 L784,576 368,944 " fill="none" stroke-width="4" stroke-linejoin="bevel" stroke-linecap="round" stroke="#000000" />
<path d="M1952,304 L2160,208 " fill="none" stroke-width="4" stroke-linejoin="bevel" stroke-linecap="round" stroke="#000000" />
<path d="M1952,304 L2160,400 " fill="none" stroke-width="4" stroke-linejoin="bevel" stroke-linecap="round" stroke="#000000" />
<path d="M2160,208 L2160,400 " fill="none" stroke-width="4" stroke-linejoin="bevel" stroke-linecap="round" stroke="#000000" />
<path d="M2240,608 L2240,320 2240,304 2160,304 " fill="none" stroke-width="4" stroke-linejoin="bevel" stroke-linecap="round" stroke="#000000" />
<path d="M2240,592 L2240,1072 " fill="none" stroke-width="4" stroke-linejoin="bevel" stroke-linecap="round" stroke="#000000" />
<path d="M336,928 L1040,304 1952,304 " fill="none" stroke-width="4" stroke-linejoin="bevel" stroke-linecap="round" stroke="#000000" />
<path d="M2336,96 L2544,0 " fill="none" stroke-width="4" stroke-linejoin="bevel" stroke-linecap="round" stroke="#000000" />
<path d="M2336,96 L2544,192 " fill="none" stroke-width="4" stroke-linejoin="bevel" stroke-linecap="round" stroke="#000000" />
<path d="M2544,0 L2544,192 " fill="none" stroke-width="4" stroke-linejoin="bevel" stroke-linecap="round" stroke="#000000" />
<path d="M2624,400 L2624,112 2624,96 2544,96 " fill="none" stroke-width="4" stroke-linejoin="bevel" stroke-linecap="round" stroke="#000000" />
<path d="M528,720 L1232,96 2144,96 " fill="none" stroke-width="4" stroke-linejoin="bevel" stroke-linecap="round" stroke="#000000" />
<path d="M2560,1072 L2624,1072 2624,96 " fill="none" stroke-width="4" stroke-linejoin="bevel" stroke-linecap="round" stroke="#000000" />
<path d="M2144,96 L2336,96 " fill="none" stroke-width="4" stroke-linejoin="bevel" stroke-linecap="round" stroke="#000000" />
<path d="M528,720 L304,928 " fill="none" stroke-width="4" stroke-linejoin="bevel" stroke-linecap="round" stroke="#000000" />
<path d="M304,928 L304,1216 " fill="none" stroke-width="4" stroke-linejoin="bevel" stroke-linecap="round" stroke="#000000" />
<path d="M160,1072 L448,1072 " fill="none" stroke-width="4" stroke-linejoin="bevel" stroke-linecap="round" stroke="#000000" />
<g transform="matrix(   1    0   -0    1 1312 784)" fill="#000000" >
<text stroke="none" font-family="Helvetica"  font-weight="bold" font-size="40" ><tspan x="0" y="0">H2</tspan>
</text></g>
<g transform="matrix(   1    0   -0    1 1680 592)" fill="#000000" >
<text stroke="none" font-family="Helvetica"  font-weight="bold" font-size="40" ><tspan x="0" y="0">H3</tspan>
</text></g>
<g transform="matrix(   1    0   -0    1 2064 320)" fill="#000000" >
<text stroke="none" font-family="Helvetica"  font-weight="bold" font-size="40" ><tspan x="0" y="0">H4</tspan>
</text></g>
<g transform="matrix(   1    0   -0    1 2448 112)" fill="#000000" >
<text stroke="none" font-family="Helvetica"  font-weight="bold" font-size="40" ><tspan x="0" y="0">H5</tspan>
</text></g>
<path d="M832,1264 L832,1168 " fill="none" stroke-width="4" stroke-linejoin="bevel" stroke-linecap="round" stroke="#000000" />
<path d="M832,976 L832,880 " fill="none" stroke-width="4" stroke-linejoin="bevel" stroke-linecap="round" stroke="#000000" />
<path d="M840,1196 C835,1186 835,1183 832,1168 C829,1183 829,1186 824,1196 C830,1194 834,1194 840,1196 " fill="#000000" stroke="none" />
<path d="M824,948 C829,958 829,961 832,976 C835,961 835,958 840,948 C834,950 830,950 824,948 " fill="#000000" stroke="none" />
<g transform="matrix(   1    0   -0    1 848 944)" fill="#000000" >
<text stroke="none" font-family="Helvetica"  font-weight="bold" font-size="40" ><tspan x="0" y="0">H1</tspan>
</text></g>
<path d="M160,1072 L128,1040 " fill="none" stroke-width="4" stroke-linejoin="bevel" stroke-linecap="round" stroke="#000000" />
<path d="M160,1072 L128,1104 " fill="none" stroke-width="4" stroke-linejoin="bevel" stroke-linecap="round" stroke="#000000" />
<path d="M0,1072 L160,1072 " fill="none" stroke-width="4" stroke-linejoin="bevel" stroke-linecap="round" stroke="#000000" />
<g transform="matrix(   1    0   -0    1  48 1040)" fill="#000000" >
<text stroke="none" font-family="Helvetica"  font-weight="bold" font-size="40" ><tspan x="0" y="0">IN</tspan>
</text></g>
<path d="M318,903 C315,913 312,915 304,928 C317,920 319,917 329,914 C324,911 321,908 318,903 " fill="#000000" stroke="none" />
<path d="M350,903 C347,913 344,915 336,928 C349,920 351,917 361,914 C356,911 353,908 350,903 " fill="#000000" stroke="none" />
<path d="M382,919 C379,929 376,931 368,944 C381,936 383,933 393,930 C388,927 385,924 382,919 " fill="#000000" stroke="none" />
<path d="M414,935 C411,945 408,947 400,960 C413,952 415,949 425,946 C420,943 417,940 414,935 " fill="#000000" stroke="none" />
<g transform="matrix(   1    0   -0    1 1296 1232)" fill="#000000" >
<text stroke="none" font-family="Helvetica"  font-weight="bold" font-size="40" ><tspan x="0" y="0">CLK</tspan>
</text></g>
<path d="M1280,1248 L1280,1152 " fill="none" stroke-width="4" stroke-linejoin="bevel" stroke-linecap="round" stroke="#000000" />
<path d="M1288,1180 C1283,1170 1283,1167 1280,1152 C1277,1167 1277,1170 1272,1180 C1278,1178 1282,1178 1288,1180 " fill="#000000" stroke="none" />
<g transform="matrix(   1    0   -0    1 1680 1232)" fill="#000000" >
<text stroke="none" font-family="Helvetica"  font-weight="bold" font-size="40" ><tspan x="0" y="0">CLK</tspan>
</text></g>
<path d="M1664,1248 L1664,1152 " fill="none" stroke-width="4" stroke-linejoin="bevel" stroke-linecap="round" stroke="#000000" />
<path d="M1672,1180 C1667,1170 1667,1167 1664,1152 C1661,1167 1661,1170 1656,1180 C1662,1178 1666,1178 1672,1180 " fill="#000000" stroke="none" />
<g transform="matrix(   1    0   -0    1 2064 1232)" fill="#000000" >
<text stroke="none" font-family="Helvetica"  font-weight="bold" font-size="40" ><tspan x="0" y="0">CLK</tspan>
</text></g>
<path d="M2048,1248 L2048,1152 " fill="none" stroke-width="4" stroke-linejoin="bevel" stroke-linecap="round" stroke="#000000" />
<path d="M2056,1180 C2051,1170 2051,1167 2048,1152 C2045,1167 2045,1170 2040,1180 C2046,1178 2050,1178 2056,1180 " fill="#000000" stroke="none" />
<g transform="matrix(   1    0   -0    1 2448 1232)" fill="#000000" >
<text stroke="none" font-family="Helvetica"  font-weight="bold" font-size="40" ><tspan x="0" y="0">CLK</tspan>
</text></g>
<path d="M2432,1248 L2432,1152 " fill="none" stroke-width="4" stroke-linejoin="bevel" stroke-linecap="round" stroke="#000000" />
<path d="M2440,1180 C2435,1170 2435,1167 2432,1152 C2429,1167 2429,1170 2424,1180 C2430,1178 2434,1178 2440,1180 " fill="#000000" stroke="none" />
<g transform="matrix(   1    0   -0    1 1168 1088)" fill="#000000" >
<text stroke="none" font-family="Helvetica"  font-weight="bold" font-size="40" ><tspan x="0" y="0">D</tspan>
</text></g>
<g transform="matrix(   1    0   -0    1 1360 1088)" fill="#000000" >
<text stroke="none" font-family="Helvetica"  font-weight="bold" font-size="40" ><tspan x="0" y="0">Q</tspan>
</text></g>
<g transform="matrix(   1    0   -0    1 1552 1088)" fill="#000000" >
<text stroke="none" font-family="Helvetica"  font-weight="bold" font-size="40" ><tspan x="0" y="0">D</tspan>
</text></g>
<g transform="matrix(   1    0   -0    1 1936 1088)" fill="#000000" >
<text stroke="none" font-family="Helvetica"  font-weight="bold" font-size="40" ><tspan x="0" y="0">D</tspan>
</text></g>
<g transform="matrix(   1    0   -0    1 2320 1088)" fill="#000000" >
<text stroke="none" font-family="Helvetica"  font-weight="bold" font-size="40" ><tspan x="0" y="0">D</tspan>
</text></g>
<g transform="matrix(   1    0   -0    1 1744 1088)" fill="#000000" >
<text stroke="none" font-family="Helvetica"  font-weight="bold" font-size="40" ><tspan x="0" y="0">Q</tspan>
</text></g>
<g transform="matrix(   1    0   -0    1 2128 1088)" fill="#000000" >
<text stroke="none" font-family="Helvetica"  font-weight="bold" font-size="40" ><tspan x="0" y="0">Q</tspan>
</text></g>
<g transform="matrix(   1    0   -0    1 2512 1088)" fill="#000000" >
<text stroke="none" font-family="Helvetica"  font-weight="bold" font-size="40" ><tspan x="0" y="0">Q</tspan>
</text></g>
</g>
</svg>
