<svg xmlns="http://www.w3.org/2000/svg"
   xmlns:xlink="http://www.w3.org/1999/xlink"
   version="1.1"
   id="dfe_type" width="100%" height="100%"  viewBox="-6 -6 2902 792">
<desc>
XCircuit Version 3.8
File "dfe_type.ps" Page 6
</desc>
<g stroke="black">
<path d="M736,98 L784,98 " fill="none" stroke-width="4" stroke-linejoin="bevel" stroke-linecap="round" stroke="#000000" />
<path d="M736,98 L704,226 656,226 " fill="none" stroke-width="4" stroke-linejoin="bevel" stroke-linecap="round" stroke="#000000" />
<path d="M128,146 L96,114 " fill="none" stroke-width="4" stroke-linejoin="bevel" stroke-linecap="round" stroke="#000000" />
<path d="M128,146 L96,178 " fill="none" stroke-width="4" stroke-linejoin="bevel" stroke-linecap="round" stroke="#000000" />
<path d="M0,146 L64,146 " fill="none" stroke-width="4" stroke-linejoin="bevel" stroke-linecap="round" stroke="#000000" />
<path d="M768,226 L768,338 " fill="none" stroke-width="4" stroke-linejoin="bevel" stroke-linecap="round" stroke="#000000" />
<path d="M768,314 L768,254 " fill="none" stroke-width="1.6" stroke-linejoin="bevel" stroke-linecap="round" stroke="#000000" />
<path d="M776,262 C771,252 771,249 768,234 C765,249 765,252 760,262 C766,260 770,260 776,262 " fill="#000000" stroke="none" />
<g transform="matrix(   1    0   -0    1 784 290)" fill="#000000" >
<text stroke="none" font-family="Helvetica"  font-weight="bold" font-size="40" ><tspan x="0" y="0">CLK</tspan>
</text></g>
<path d="M608,514 L912,370 " fill="none" stroke-width="4" stroke-linejoin="bevel" stroke-linecap="round" stroke="#000000" />
<path d="M608,514 L912,658 " fill="none" stroke-width="4" stroke-linejoin="bevel" stroke-linecap="round" stroke="#000000" />
<path d="M912,370 L912,658 " fill="none" stroke-width="4" stroke-linejoin="bevel" stroke-linecap="round" stroke="#000000" />
<g transform="matrix(   1    0   -0    1 784 530)" fill="#000000" >
<text stroke="none" font-family="Helvetica"  font-weight="bold" font-size="40" ><tspan x="0" y="0">H1</tspan>
</text></g>
<path d="M926,143 L623,287 " fill="none" stroke-width="4" stroke-linejoin="bevel" stroke-linecap="round" stroke="#000000" />
<path d="M926,143 L623,0 " fill="none" stroke-width="4" stroke-linejoin="bevel" stroke-linecap="round" stroke="#000000" />
<path d="M623,287 L623,0 " fill="none" stroke-width="4" stroke-linejoin="bevel" stroke-linecap="round" stroke="#000000" />
<path d="M672,162 L784,162 " fill="none" style="stroke-dasharray:12,12" stroke-width="4" stroke-linecap="butt" stroke-linejoin="bevel" stroke="#000000" />
<path d="M672,162 L656,162 " fill="none" style="stroke-dasharray:12,12" stroke-width="4" stroke-linecap="butt" stroke-linejoin="bevel" stroke="#000000" />
<ellipse cx="208" cy="146" rx="80" ry="80" fill="none" stroke-width="4" stroke-linejoin="bevel" stroke-linecap="round" stroke="#000000" />
<path d="M208,66 L208,290 " fill="none" stroke-width="4" stroke-linejoin="bevel" stroke-linecap="round" stroke="#000000" />
<path d="M64,146 L352,146 " fill="none" stroke-width="4" stroke-linejoin="bevel" stroke-linecap="round" stroke="#000000" />
<path d="M208,226 L176,258 " fill="none" stroke-width="4" stroke-linejoin="bevel" stroke-linecap="round" stroke="#000000" />
<path d="M208,226 L239,256 " fill="none" stroke-width="4" stroke-linejoin="bevel" stroke-linecap="round" stroke="#000000" />
<path d="M624,146 L592,114 " fill="none" stroke-width="4" stroke-linejoin="bevel" stroke-linecap="round" stroke="#000000" />
<path d="M624,146 L592,178 " fill="none" stroke-width="4" stroke-linejoin="bevel" stroke-linecap="round" stroke="#000000" />
<path d="M928,146 L1120,146 1120,498 912,498 " fill="none" stroke-width="4" stroke-linejoin="bevel" stroke-linecap="round" stroke="#000000" />
<path d="M352,146 L624,146 " fill="none" stroke-width="4" stroke-linejoin="bevel" stroke-linecap="round" stroke="#000000" />
<path d="M208,290 L208,514 624,514 " fill="none" stroke-width="4" stroke-linejoin="bevel" stroke-linecap="round" stroke="#000000" />
<path d="M2560,258 L2608,258 " fill="none" stroke-width="4" stroke-linejoin="bevel" stroke-linecap="round" stroke="#000000" />
<path d="M2560,258 L2528,354 2480,354 " fill="none" stroke-width="4" stroke-linejoin="bevel" stroke-linecap="round" stroke="#000000" />
<path d="M1600,82 L1568,50 " fill="none" stroke-width="4" stroke-linejoin="bevel" stroke-linecap="round" stroke="#000000" />
<path d="M1600,82 L1568,114 " fill="none" stroke-width="4" stroke-linejoin="bevel" stroke-linecap="round" stroke="#000000" />
<path d="M1472,82 L1536,82 " fill="none" stroke-width="4" stroke-linejoin="bevel" stroke-linecap="round" stroke="#000000" />
<path d="M2592,386 L2592,498 " fill="none" stroke-width="4" stroke-linejoin="bevel" stroke-linecap="round" stroke="#000000" />
<path d="M2592,474 L2592,414 " fill="none" stroke-width="1.6" stroke-linejoin="bevel" stroke-linecap="round" stroke="#000000" />
<path d="M2600,422 C2595,412 2595,409 2592,394 C2589,409 2589,412 2584,422 C2590,420 2594,420 2600,422 " fill="#000000" stroke="none" />
<g transform="matrix(   1    0   -0    1 2608 450)" fill="#000000" >
<text stroke="none" font-family="Helvetica"  font-weight="bold" font-size="40" ><tspan x="0" y="0">CLK</tspan>
</text></g>
<path d="M2750,303 L2447,447 " fill="none" stroke-width="4" stroke-linejoin="bevel" stroke-linecap="round" stroke="#000000" />
<path d="M2750,303 L2447,160 " fill="none" stroke-width="4" stroke-linejoin="bevel" stroke-linecap="round" stroke="#000000" />
<path d="M2447,447 L2447,160 " fill="none" stroke-width="4" stroke-linejoin="bevel" stroke-linecap="round" stroke="#000000" />
<path d="M2496,306 L2608,306 " fill="none" style="stroke-dasharray:12,12" stroke-width="4" stroke-linecap="butt" stroke-linejoin="bevel" stroke="#000000" />
<path d="M2496,322 L2480,322 " fill="none" style="stroke-dasharray:12,12" stroke-width="4" stroke-linecap="butt" stroke-linejoin="bevel" stroke="#000000" />
<ellipse cx="1680" cy="82" rx="80" ry="80" fill="none" stroke-width="4" stroke-linejoin="bevel" stroke-linecap="round" stroke="#000000" />
<path d="M1680,2 L1680,226 " fill="none" stroke-width="4" stroke-linejoin="bevel" stroke-linecap="round" stroke="#000000" />
<path d="M1536,82 L1824,82 " fill="none" stroke-width="4" stroke-linejoin="bevel" stroke-linecap="round" stroke="#000000" />
<path d="M1680,162 L1648,194 " fill="none" stroke-width="4" stroke-linejoin="bevel" stroke-linecap="round" stroke="#000000" />
<path d="M1680,162 L1711,192 " fill="none" stroke-width="4" stroke-linejoin="bevel" stroke-linecap="round" stroke="#000000" />
<path d="M2176,258 L2144,226 " fill="none" stroke-width="4" stroke-linejoin="bevel" stroke-linecap="round" stroke="#000000" />
<path d="M2176,258 L2144,290 " fill="none" stroke-width="4" stroke-linejoin="bevel" stroke-linecap="round" stroke="#000000" />
<path d="M2032,258 L2176,258 " fill="none" stroke-width="4" stroke-linejoin="bevel" stroke-linecap="round" stroke="#000000" />
<path d="M1680,226 L1680,274 " fill="none" stroke-width="4" stroke-linejoin="bevel" stroke-linecap="round" stroke="#000000" />
<g transform="matrix(   1    0   -0    1 1696 258)" fill="#000000" >
<text stroke="none" font-family="Helvetica"  font-weight="bold" font-size="40" ><tspan x="0" y="0">+H1</tspan>
</text></g>
<path d="M2176,370 L2144,338 " fill="none" stroke-width="4" stroke-linejoin="bevel" stroke-linecap="round" stroke="#000000" />
<path d="M2176,370 L2144,402 " fill="none" stroke-width="4" stroke-linejoin="bevel" stroke-linecap="round" stroke="#000000" />
<path d="M2032,370 L2176,370 " fill="none" stroke-width="4" stroke-linejoin="bevel" stroke-linecap="round" stroke="#000000" />
<path d="M2176,178 L2176,450 2304,370 2304,242 2176,162 2176,210 " fill="none" stroke-width="4" stroke-linejoin="bevel" stroke-linecap="round" stroke="#000000" />
<g transform="matrix(   1    0   -0    1 2192 322)" fill="#000000" >
<text stroke="none" font-family="Helvetica"  font-weight="bold" font-size="40" ><tspan x="0" y="0">MUX</tspan>
</text></g>
<path d="M2448,306 L2416,274 " fill="none" stroke-width="4" stroke-linejoin="bevel" stroke-linecap="round" stroke="#000000" />
<path d="M2448,306 L2416,338 " fill="none" stroke-width="4" stroke-linejoin="bevel" stroke-linecap="round" stroke="#000000" />
<path d="M2304,306 L2448,306 " fill="none" stroke-width="4" stroke-linejoin="bevel" stroke-linecap="round" stroke="#000000" />
<path d="M2752,306 L2896,306 2896,594 2256,594 2240,594 2240,418 " fill="none" stroke-width="4" stroke-linejoin="bevel" stroke-linecap="round" stroke="#000000" />
<path d="M2240,418 L2208,450 " fill="none" stroke-width="4" stroke-linejoin="bevel" stroke-linecap="round" stroke="#000000" />
<path d="M2240,418 L2271,448 " fill="none" stroke-width="4" stroke-linejoin="bevel" stroke-linecap="round" stroke="#000000" />
<path d="M1824,530 L2032,530 2032,370 " fill="none" stroke-width="4" stroke-linejoin="bevel" stroke-linecap="round" stroke="#000000" />
<path d="M1824,82 L2032,82 2032,258 " fill="none" stroke-width="4" stroke-linejoin="bevel" stroke-linecap="round" stroke="#000000" />
<g transform="matrix(   2    0   -0    2 368 786)" fill="#000000" >
<text stroke="none" font-family="Helvetica" font-size="40" ><tspan x="0" y="0">ROLLED DFE</tspan>
</text></g>
<g transform="matrix(   2    0   -0    2 1840 786)" fill="#000000" >
<text stroke="none" font-family="Helvetica" font-size="40" ><tspan x="0" y="0">UNROLLED DFE</tspan>
</text></g>
<ellipse cx="1680" cy="530" rx="80" ry="80" fill="none" stroke-width="4" stroke-linejoin="bevel" stroke-linecap="round" stroke="#000000" />
<path d="M1536,530 L1824,530 " fill="none" stroke-width="4" stroke-linejoin="bevel" stroke-linecap="round" stroke="#000000" />
<path d="M1600,530 L1568,498 " fill="none" stroke-width="4" stroke-linejoin="bevel" stroke-linecap="round" stroke="#000000" />
<path d="M1600,530 L1568,562 " fill="none" stroke-width="4" stroke-linejoin="bevel" stroke-linecap="round" stroke="#000000" />
<path d="M1472,530 L1536,530 " fill="none" stroke-width="4" stroke-linejoin="bevel" stroke-linecap="round" stroke="#000000" />
<path d="M1680,386 L1680,610 " fill="none" stroke-width="4" stroke-linejoin="bevel" stroke-linecap="round" stroke="#000000" />
<path d="M1679,448 L1713,420 " fill="none" stroke-width="4" stroke-linejoin="bevel" stroke-linecap="round" stroke="#000000" />
<path d="M1679,448 L1648,420 " fill="none" stroke-width="4" stroke-linejoin="bevel" stroke-linecap="round" stroke="#000000" />
<path d="M1680,338 L1680,386 " fill="none" stroke-width="4" stroke-linejoin="bevel" stroke-linecap="round" stroke="#000000" />
<g transform="matrix(   1    0   -0    1 1696 386)" fill="#000000" >
<text stroke="none" font-family="Helvetica"  font-weight="bold" font-size="40" ><tspan x="0" y="0">-H1</tspan>
</text></g>
</g>
</svg>
