<svg xmlns="http://www.w3.org/2000/svg"
   xmlns:xlink="http://www.w3.org/1999/xlink"
   version="1.1"
   id="summer" width="100%" height="100%"  viewBox="-6 -6 1656 586">
<desc>
XCircuit Version 3.8
File "summer.ps" Page 1
</desc>
<g stroke="black">
<path d="M144,312 L144,276 112,276 112,220 144,220 144,184 " fill="none" stroke-width="2" stroke-linejoin="bevel" stroke-linecap="round" stroke="#000000" />
<path d="M100,276 L100,220 " fill="none" stroke-width="2" stroke-linejoin="bevel" stroke-linecap="round" stroke="#000000" />
<path d="M100,248 L80,248 " fill="none" stroke-width="2" stroke-linejoin="bevel" stroke-linecap="round" stroke="#000000" />
<path d="M116,284 C126,279 129,279 144,276 C129,273 126,273 116,268 C118,274 118,278 116,284 " fill="#000000" stroke="none" />
<path d="M400,312 L400,276 432,276 432,220 400,220 400,184 " fill="none" stroke-width="2" stroke-linejoin="bevel" stroke-linecap="round" stroke="#000000" />
<path d="M444,276 L444,220 " fill="none" stroke-width="2" stroke-linejoin="bevel" stroke-linecap="round" stroke="#000000" />
<path d="M444,248 L464,248 " fill="none" stroke-width="2" stroke-linejoin="bevel" stroke-linecap="round" stroke="#000000" />
<path d="M428,284 C418,279 415,279 400,276 C415,273 418,273 428,268 C426,274 426,278 428,284 " fill="#000000" stroke="none" />
<path d="M144,184 L144,136 " fill="none" stroke-width="2" stroke-linejoin="bevel" stroke-linecap="round" stroke="#000000" />
<path d="M400,184 L400,136 " fill="none" stroke-width="2" stroke-linejoin="bevel" stroke-linecap="round" stroke="#000000" />
<path d="M720,312 L720,276 688,276 688,220 720,220 720,184 " fill="none" stroke-width="2" stroke-linejoin="bevel" stroke-linecap="round" stroke="#000000" />
<path d="M676,276 L676,220 " fill="none" stroke-width="2" stroke-linejoin="bevel" stroke-linecap="round" stroke="#000000" />
<path d="M676,248 L656,248 " fill="none" stroke-width="2" stroke-linejoin="bevel" stroke-linecap="round" stroke="#000000" />
<path d="M692,284 C702,279 705,279 720,276 C705,273 702,273 692,268 C694,274 694,278 692,284 " fill="#000000" stroke="none" />
<path d="M976,312 L976,276 1008,276 1008,220 976,220 976,184 " fill="none" stroke-width="2" stroke-linejoin="bevel" stroke-linecap="round" stroke="#000000" />
<path d="M1020,276 L1020,220 " fill="none" stroke-width="2" stroke-linejoin="bevel" stroke-linecap="round" stroke="#000000" />
<path d="M1020,248 L1040,248 " fill="none" stroke-width="2" stroke-linejoin="bevel" stroke-linecap="round" stroke="#000000" />
<path d="M1004,284 C994,279 991,279 976,276 C991,273 994,273 1004,268 C1002,274 1002,278 1004,284 " fill="#000000" stroke="none" />
<path d="M720,312 L720,344 976,344 976,312 " fill="none" stroke-width="2" stroke-linejoin="bevel" stroke-linecap="round" stroke="#000000" />
<path d="M400,312 L400,344 144,344 144,312 " fill="none" stroke-width="2" stroke-linejoin="bevel" stroke-linecap="round" stroke="#000000" />
<path d="M272,392 L272,344 " fill="none" stroke-width="2" stroke-linejoin="bevel" stroke-linecap="round" stroke="#000000" />
<path d="M848,392 L848,344 " fill="none" stroke-width="2" stroke-linejoin="bevel" stroke-linecap="round" stroke="#000000" />
<path d="M272,520 L272,552 " fill="none" stroke-width="2" stroke-linejoin="bevel" stroke-linecap="round" stroke="#000000" />
<path d="M240,552 L304,552 " fill="none" stroke-width="2" stroke-linejoin="bevel" stroke-linecap="round" stroke="#000000" />
<path d="M254,566 L290,566 " fill="none" stroke-width="2" stroke-linejoin="bevel" stroke-linecap="round" stroke="#000000" />
<path d="M268,580 L276,580 " fill="none" stroke-width="2" stroke-linejoin="bevel" stroke-linecap="round" stroke="#000000" />
<path d="M848,520 L848,552 " fill="none" stroke-width="2" stroke-linejoin="bevel" stroke-linecap="round" stroke="#000000" />
<path d="M816,552 L880,552 " fill="none" stroke-width="2" stroke-linejoin="bevel" stroke-linecap="round" stroke="#000000" />
<path d="M830,566 L866,566 " fill="none" stroke-width="2" stroke-linejoin="bevel" stroke-linecap="round" stroke="#000000" />
<path d="M844,580 L852,580 " fill="none" stroke-width="2" stroke-linejoin="bevel" stroke-linecap="round" stroke="#000000" />
<g transform="matrix(   1    0   -0    1   0 264)" fill="#000000" >
<text stroke="none" font-family="Helvetica" font-size="40" ><tspan x="0" y="0">vin+</tspan>
</text></g>
<g transform="matrix(   1    0   -0    1 480 264)" fill="#000000" >
<text stroke="none" font-family="Helvetica" font-size="40" ><tspan x="0" y="0">vin-</tspan>
</text></g>
<ellipse cx="272" cy="456" rx="32" ry="32" fill="none" stroke-width="2" stroke-linejoin="bevel" stroke-linecap="round" stroke="#000000" />
<path d="M272,424 L272,392 " fill="none" stroke-width="2" stroke-linejoin="bevel" stroke-linecap="round" stroke="#000000" />
<path d="M272,488 L272,520 " fill="none" stroke-width="2" stroke-linejoin="bevel" stroke-linecap="round" stroke="#000000" />
<path d="M272,436 L272,464 " fill="none" stroke-width="1.5" stroke-linejoin="bevel" stroke-linecap="round" stroke="#000000" />
<path d="M266,454 C270,462 270,464 272,476 C274,464 274,462 278,454 C274,455 270,455 266,454 " fill="#000000" stroke="none" />
<ellipse cx="848" cy="456" rx="32" ry="32" fill="none" stroke-width="2" stroke-linejoin="bevel" stroke-linecap="round" stroke="#000000" />
<path d="M848,424 L848,392 " fill="none" stroke-width="2" stroke-linejoin="bevel" stroke-linecap="round" stroke="#000000" />
<path d="M848,488 L848,520 " fill="none" stroke-width="2" stroke-linejoin="bevel" stroke-linecap="round" stroke="#000000" />
<path d="M848,436 L848,464 " fill="none" stroke-width="1.5" stroke-linejoin="bevel" stroke-linecap="round" stroke="#000000" />
<path d="M842,454 C846,462 846,464 848,476 C850,464 850,462 854,454 C850,455 846,455 842,454 " fill="#000000" stroke="none" />
<path d="M800,504 L896,408 " fill="none" stroke-width="2" stroke-linejoin="bevel" stroke-linecap="round" stroke="#000000" />
<path d="M882,433 C885,423 888,421 896,408 C883,416 881,419 871,422 C876,425 879,428 882,433 " fill="#000000" stroke="none" />
<g transform="matrix(   1    0   -0    1 912 472)" fill="#000000" >
<text stroke="none" font-family="Helvetica" font-size="40" ><tspan x="0" y="0">|H2|</tspan>
</text></g>
<path d="M1620,16 C1630,11 1633,11 1648,8 C1633,5 1630,5 1620,0 C1622,6 1622,10 1620,16 " fill="#000000" stroke="none" />
<path d="M1620,80 C1630,75 1633,75 1648,72 C1633,69 1630,69 1620,64 C1622,70 1622,74 1620,80 " fill="#000000" stroke="none" />
<g transform="matrix(   1    0   -0    1 1584  40)" fill="#000000" >
<text stroke="none" font-family="Helvetica" font-size="40" ><tspan x="0" y="0">vo-</tspan>
</text></g>
<g transform="matrix(   1    0   -0    1 1584 120)" fill="#000000" >
<text stroke="none" font-family="Helvetica" font-size="40" ><tspan x="0" y="0">vo+</tspan>
</text></g>
<path d="M1648,72 L400,72 400,136 " fill="none" stroke-width="2" stroke-linejoin="bevel" stroke-linecap="round" stroke="#000000" />
<path d="M144,136 L144,8 1648,8 " fill="none" stroke-width="2" stroke-linejoin="bevel" stroke-linecap="round" stroke="#000000" />
<path d="M720,184 L720,72 " fill="none" stroke-width="2" stroke-linejoin="bevel" stroke-linecap="round" stroke="#000000" />
<path d="M976,184 L976,8 " fill="none" stroke-width="2" stroke-linejoin="bevel" stroke-linecap="round" stroke="#000000" />
<ellipse cx="720" cy="72" rx="6" ry="6" fill="#000000" stroke="none" />
<ellipse cx="976" cy="8" rx="6" ry="6" fill="#000000" stroke="none" />
<path d="M1264,312 L1264,276 1232,276 1232,220 1264,220 1264,184 " fill="none" stroke-width="2" stroke-linejoin="bevel" stroke-linecap="round" stroke="#000000" />
<path d="M1220,276 L1220,220 " fill="none" stroke-width="2" stroke-linejoin="bevel" stroke-linecap="round" stroke="#000000" />
<path d="M1220,248 L1200,248 " fill="none" stroke-width="2" stroke-linejoin="bevel" stroke-linecap="round" stroke="#000000" />
<path d="M1236,284 C1246,279 1249,279 1264,276 C1249,273 1246,273 1236,268 C1238,274 1238,278 1236,284 " fill="#000000" stroke="none" />
<path d="M1520,312 L1520,276 1552,276 1552,220 1520,220 1520,184 " fill="none" stroke-width="2" stroke-linejoin="bevel" stroke-linecap="round" stroke="#000000" />
<path d="M1564,276 L1564,220 " fill="none" stroke-width="2" stroke-linejoin="bevel" stroke-linecap="round" stroke="#000000" />
<path d="M1564,248 L1584,248 " fill="none" stroke-width="2" stroke-linejoin="bevel" stroke-linecap="round" stroke="#000000" />
<path d="M1548,284 C1538,279 1535,279 1520,276 C1535,273 1538,273 1548,268 C1546,274 1546,278 1548,284 " fill="#000000" stroke="none" />
<path d="M1264,312 L1264,344 1520,344 1520,312 " fill="none" stroke-width="2" stroke-linejoin="bevel" stroke-linecap="round" stroke="#000000" />
<path d="M1392,392 L1392,344 " fill="none" stroke-width="2" stroke-linejoin="bevel" stroke-linecap="round" stroke="#000000" />
<path d="M1392,520 L1392,552 " fill="none" stroke-width="2" stroke-linejoin="bevel" stroke-linecap="round" stroke="#000000" />
<path d="M1360,552 L1424,552 " fill="none" stroke-width="2" stroke-linejoin="bevel" stroke-linecap="round" stroke="#000000" />
<path d="M1374,566 L1410,566 " fill="none" stroke-width="2" stroke-linejoin="bevel" stroke-linecap="round" stroke="#000000" />
<path d="M1388,580 L1396,580 " fill="none" stroke-width="2" stroke-linejoin="bevel" stroke-linecap="round" stroke="#000000" />
<ellipse cx="1392" cy="456" rx="32" ry="32" fill="none" stroke-width="2" stroke-linejoin="bevel" stroke-linecap="round" stroke="#000000" />
<path d="M1392,424 L1392,392 " fill="none" stroke-width="2" stroke-linejoin="bevel" stroke-linecap="round" stroke="#000000" />
<path d="M1392,488 L1392,520 " fill="none" stroke-width="2" stroke-linejoin="bevel" stroke-linecap="round" stroke="#000000" />
<path d="M1392,436 L1392,464 " fill="none" stroke-width="1.5" stroke-linejoin="bevel" stroke-linecap="round" stroke="#000000" />
<path d="M1386,454 C1390,462 1390,464 1392,476 C1394,464 1394,462 1398,454 C1394,455 1390,455 1386,454 " fill="#000000" stroke="none" />
<path d="M1344,504 L1440,408 " fill="none" stroke-width="2" stroke-linejoin="bevel" stroke-linecap="round" stroke="#000000" />
<path d="M1426,433 C1429,423 1432,421 1440,408 C1427,416 1425,419 1415,422 C1420,425 1423,428 1426,433 " fill="#000000" stroke="none" />
<path d="M1264,184 L1264,72 " fill="none" stroke-width="2" stroke-linejoin="bevel" stroke-linecap="round" stroke="#000000" />
<path d="M1520,184 L1520,8 " fill="none" stroke-width="2" stroke-linejoin="bevel" stroke-linecap="round" stroke="#000000" />
<g transform="matrix(   1    0   -0    1 592 264)" fill="#000000" >
<text stroke="none" font-family="Helvetica" font-size="40" ><tspan x="0" y="0">S2</tspan>
</text></g>
<g transform="matrix(   1    0   -0    1 1056 264)" fill="#000000" >
<text stroke="none" font-family="Helvetica" font-size="40" ><tspan x="0" y="0">S2</tspan>
</text></g>
<path d="M1056,232 L1104,232 " fill="none" stroke-width="2" stroke-linejoin="bevel" stroke-linecap="round" stroke="#000000" />
<g transform="matrix(   1    0   -0    1 1440 472)" fill="#000000" >
<text stroke="none" font-family="Helvetica" font-size="40" ><tspan x="0" y="0">|H3|</tspan>
</text></g>
<ellipse cx="1264" cy="72" rx="6" ry="6" fill="#000000" stroke="none" />
<ellipse cx="1520" cy="8" rx="6" ry="6" fill="#000000" stroke="none" />
<g transform="matrix(   1    0   -0    1 1136 264)" fill="#000000" >
<text stroke="none" font-family="Helvetica" font-size="40" ><tspan x="0" y="0">S3</tspan>
</text></g>
<g transform="matrix(   1    0   -0    1 1600 264)" fill="#000000" >
<text stroke="none" font-family="Helvetica" font-size="40" ><tspan x="0" y="0">S3</tspan>
</text></g>
<path d="M1600,232 L1648,232 " fill="none" stroke-width="2" stroke-linejoin="bevel" stroke-linecap="round" stroke="#000000" />
</g>
</svg>
