<svg xmlns="http://www.w3.org/2000/svg"
   xmlns:xlink="http://www.w3.org/1999/xlink"
   version="1.1"
   id="summer" width="100%" height="100%"  viewBox="-6 -6 1230 994">
<desc>
XCircuit Version 3.8
File "summer.ps" Page 3
</desc>
<g stroke="black">
<path d="M128,720 L128,684 96,684 96,628 128,628 128,592 " fill="none" stroke-width="2" stroke-linejoin="bevel" stroke-linecap="round" stroke="#000000" />
<path d="M84,684 L84,628 " fill="none" stroke-width="2" stroke-linejoin="bevel" stroke-linecap="round" stroke="#000000" />
<path d="M84,656 L64,656 " fill="none" stroke-width="2" stroke-linejoin="bevel" stroke-linecap="round" stroke="#000000" />
<path d="M100,692 C110,687 113,687 128,684 C113,681 110,681 100,676 C102,682 102,686 100,692 " fill="#000000" stroke="none" />
<path d="M384,720 L384,684 416,684 416,628 384,628 384,592 " fill="none" stroke-width="2" stroke-linejoin="bevel" stroke-linecap="round" stroke="#000000" />
<path d="M428,684 L428,628 " fill="none" stroke-width="2" stroke-linejoin="bevel" stroke-linecap="round" stroke="#000000" />
<path d="M428,656 L448,656 " fill="none" stroke-width="2" stroke-linejoin="bevel" stroke-linecap="round" stroke="#000000" />
<path d="M412,692 C402,687 399,687 384,684 C399,681 402,681 412,676 C410,682 410,686 412,692 " fill="#000000" stroke="none" />
<path d="M128,592 L128,544 " fill="none" stroke-width="2" stroke-linejoin="bevel" stroke-linecap="round" stroke="#000000" />
<path d="M384,592 L384,544 " fill="none" stroke-width="2" stroke-linejoin="bevel" stroke-linecap="round" stroke="#000000" />
<path d="M864,720 L864,684 832,684 832,628 864,628 864,592 " fill="none" stroke-width="2" stroke-linejoin="bevel" stroke-linecap="round" stroke="#000000" />
<path d="M820,684 L820,628 " fill="none" stroke-width="2" stroke-linejoin="bevel" stroke-linecap="round" stroke="#000000" />
<path d="M820,656 L800,656 " fill="none" stroke-width="2" stroke-linejoin="bevel" stroke-linecap="round" stroke="#000000" />
<path d="M836,692 C846,687 849,687 864,684 C849,681 846,681 836,676 C838,682 838,686 836,692 " fill="#000000" stroke="none" />
<path d="M1120,720 L1120,684 1152,684 1152,628 1120,628 1120,592 " fill="none" stroke-width="2" stroke-linejoin="bevel" stroke-linecap="round" stroke="#000000" />
<path d="M1164,684 L1164,628 " fill="none" stroke-width="2" stroke-linejoin="bevel" stroke-linecap="round" stroke="#000000" />
<path d="M1164,656 L1184,656 " fill="none" stroke-width="2" stroke-linejoin="bevel" stroke-linecap="round" stroke="#000000" />
<path d="M1148,692 C1138,687 1135,687 1120,684 C1135,681 1138,681 1148,676 C1146,682 1146,686 1148,692 " fill="#000000" stroke="none" />
<path d="M864,720 L864,752 1120,752 1120,720 " fill="none" stroke-width="2" stroke-linejoin="bevel" stroke-linecap="round" stroke="#000000" />
<path d="M384,720 L384,752 128,752 128,720 " fill="none" stroke-width="2" stroke-linejoin="bevel" stroke-linecap="round" stroke="#000000" />
<path d="M256,800 L256,752 " fill="none" stroke-width="2" stroke-linejoin="bevel" stroke-linecap="round" stroke="#000000" />
<path d="M992,800 L992,752 " fill="none" stroke-width="2" stroke-linejoin="bevel" stroke-linecap="round" stroke="#000000" />
<path d="M256,928 L256,960 " fill="none" stroke-width="2" stroke-linejoin="bevel" stroke-linecap="round" stroke="#000000" />
<path d="M224,960 L288,960 " fill="none" stroke-width="2" stroke-linejoin="bevel" stroke-linecap="round" stroke="#000000" />
<path d="M238,974 L274,974 " fill="none" stroke-width="2" stroke-linejoin="bevel" stroke-linecap="round" stroke="#000000" />
<path d="M252,988 L260,988 " fill="none" stroke-width="2" stroke-linejoin="bevel" stroke-linecap="round" stroke="#000000" />
<path d="M992,928 L992,960 " fill="none" stroke-width="2" stroke-linejoin="bevel" stroke-linecap="round" stroke="#000000" />
<path d="M960,960 L1024,960 " fill="none" stroke-width="2" stroke-linejoin="bevel" stroke-linecap="round" stroke="#000000" />
<path d="M974,974 L1010,974 " fill="none" stroke-width="2" stroke-linejoin="bevel" stroke-linecap="round" stroke="#000000" />
<path d="M988,988 L996,988 " fill="none" stroke-width="2" stroke-linejoin="bevel" stroke-linecap="round" stroke="#000000" />
<g transform="matrix(   1    0   -0    1   0 656)" fill="#000000" >
<text stroke="none" font-family="Helvetica" font-size="40" ><tspan x="0" y="0">vin+</tspan>
</text></g>
<g transform="matrix(   1    0   -0    1 448 656)" fill="#000000" >
<text stroke="none" font-family="Helvetica" font-size="40" ><tspan x="0" y="0">vin-</tspan>
</text></g>
<ellipse cx="256" cy="864" rx="32" ry="32" fill="none" stroke-width="2" stroke-linejoin="bevel" stroke-linecap="round" stroke="#000000" />
<path d="M256,832 L256,800 " fill="none" stroke-width="2" stroke-linejoin="bevel" stroke-linecap="round" stroke="#000000" />
<path d="M256,896 L256,928 " fill="none" stroke-width="2" stroke-linejoin="bevel" stroke-linecap="round" stroke="#000000" />
<path d="M256,844 L256,872 " fill="none" stroke-width="1.5" stroke-linejoin="bevel" stroke-linecap="round" stroke="#000000" />
<path d="M250,862 C254,870 254,872 256,884 C258,872 258,870 262,862 C258,863 254,863 250,862 " fill="#000000" stroke="none" />
<ellipse cx="992" cy="864" rx="32" ry="32" fill="none" stroke-width="2" stroke-linejoin="bevel" stroke-linecap="round" stroke="#000000" />
<path d="M992,832 L992,800 " fill="none" stroke-width="2" stroke-linejoin="bevel" stroke-linecap="round" stroke="#000000" />
<path d="M992,896 L992,928 " fill="none" stroke-width="2" stroke-linejoin="bevel" stroke-linecap="round" stroke="#000000" />
<path d="M992,844 L992,872 " fill="none" stroke-width="1.5" stroke-linejoin="bevel" stroke-linecap="round" stroke="#000000" />
<path d="M986,862 C990,870 990,872 992,884 C994,872 994,870 998,862 C994,863 990,863 986,862 " fill="#000000" stroke="none" />
<path d="M944,912 L1040,816 " fill="none" stroke-width="2" stroke-linejoin="bevel" stroke-linecap="round" stroke="#000000" />
<path d="M1026,841 C1029,831 1032,829 1040,816 C1027,824 1025,827 1015,830 C1020,833 1023,836 1026,841 " fill="#000000" stroke="none" />
<path d="M1184,608 L1216,608 " fill="none" stroke-width="2" stroke-linejoin="bevel" stroke-linecap="round" stroke="#000000" />
<g transform="matrix(   1    0   -0    1 1184 640)" fill="#000000" >
<text stroke="none" font-family="Helvetica" font-size="40" ><tspan x="0" y="0">S1</tspan>
</text></g>
<g transform="matrix(   1    0   -0    1 768 640)" fill="#000000" >
<text stroke="none" font-family="Helvetica" font-size="40" ><tspan x="0" y="0">S1</tspan>
</text></g>
<g transform="matrix(   1    0   -0    1 1056 880)" fill="#000000" >
<text stroke="none" font-family="Helvetica" font-size="40" ><tspan x="0" y="0">|H2|</tspan>
</text></g>
<path d="M704,208 L629,178 " fill="none" stroke-width="2.6" stroke-linejoin="bevel" stroke-linecap="round" stroke="#000000" />
<path d="M667,213 A57,57 0 0,0 681,176 " fill="none" stroke-width="1.2" stroke-linejoin="bevel" stroke-linecap="round" stroke="#000000" />
<ellipse cx="624" cy="176" rx="6" ry="6" fill="none" stroke-width="2" stroke-linejoin="bevel" stroke-linecap="round" stroke="#000000" />
<path d="M608,176 L618,176 " fill="none" stroke-width="2" stroke-linejoin="bevel" stroke-linecap="round" stroke="#000000" />
<path d="M685,181 C682,175 682,173 680,164 C678,173 678,175 675,181 C679,180 681,180 685,181 " fill="#000000" stroke="none" />
<ellipse cx="704" cy="176" rx="6" ry="6" fill="none" stroke-width="2" stroke-linejoin="bevel" stroke-linecap="round" stroke="#000000" />
<path d="M720,176 L710,176 " fill="none" stroke-width="2" stroke-linejoin="bevel" stroke-linecap="round" stroke="#000000" />
<path d="M704,352 L629,322 " fill="none" stroke-width="2.6" stroke-linejoin="bevel" stroke-linecap="round" stroke="#000000" />
<path d="M667,357 A57,57 0 0,0 681,320 " fill="none" stroke-width="1.2" stroke-linejoin="bevel" stroke-linecap="round" stroke="#000000" />
<ellipse cx="624" cy="320" rx="6" ry="6" fill="none" stroke-width="2" stroke-linejoin="bevel" stroke-linecap="round" stroke="#000000" />
<path d="M608,320 L618,320 " fill="none" stroke-width="2" stroke-linejoin="bevel" stroke-linecap="round" stroke="#000000" />
<path d="M685,325 C682,319 682,317 680,308 C678,317 678,319 675,325 C679,324 681,324 685,325 " fill="#000000" stroke="none" />
<ellipse cx="704" cy="320" rx="6" ry="6" fill="none" stroke-width="2" stroke-linejoin="bevel" stroke-linecap="round" stroke="#000000" />
<path d="M720,320 L710,320 " fill="none" stroke-width="2" stroke-linejoin="bevel" stroke-linecap="round" stroke="#000000" />
<path d="M608,176 L128,176 128,560 " fill="none" stroke-width="2" stroke-linejoin="bevel" stroke-linecap="round" stroke="#000000" />
<path d="M608,320 L384,320 384,544 " fill="none" stroke-width="2" stroke-linejoin="bevel" stroke-linecap="round" stroke="#000000" />
<path d="M704,432 L629,402 " fill="none" stroke-width="2.6" stroke-linejoin="bevel" stroke-linecap="round" stroke="#000000" />
<path d="M667,437 A57,57 0 0,0 681,400 " fill="none" stroke-width="1.2" stroke-linejoin="bevel" stroke-linecap="round" stroke="#000000" />
<ellipse cx="624" cy="400" rx="6" ry="6" fill="none" stroke-width="2" stroke-linejoin="bevel" stroke-linecap="round" stroke="#000000" />
<path d="M608,400 L618,400 " fill="none" stroke-width="2" stroke-linejoin="bevel" stroke-linecap="round" stroke="#000000" />
<path d="M685,405 C682,399 682,397 680,388 C678,397 678,399 675,405 C679,404 681,404 685,405 " fill="#000000" stroke="none" />
<ellipse cx="704" cy="400" rx="6" ry="6" fill="none" stroke-width="2" stroke-linejoin="bevel" stroke-linecap="round" stroke="#000000" />
<path d="M720,400 L710,400 " fill="none" stroke-width="2" stroke-linejoin="bevel" stroke-linecap="round" stroke="#000000" />
<path d="M704,576 L629,546 " fill="none" stroke-width="2.6" stroke-linejoin="bevel" stroke-linecap="round" stroke="#000000" />
<path d="M667,581 A57,57 0 0,0 681,544 " fill="none" stroke-width="1.2" stroke-linejoin="bevel" stroke-linecap="round" stroke="#000000" />
<ellipse cx="624" cy="544" rx="6" ry="6" fill="none" stroke-width="2" stroke-linejoin="bevel" stroke-linecap="round" stroke="#000000" />
<path d="M608,544 L618,544 " fill="none" stroke-width="2" stroke-linejoin="bevel" stroke-linecap="round" stroke="#000000" />
<path d="M685,549 C682,543 682,541 680,532 C678,541 678,543 675,549 C679,548 681,548 685,549 " fill="#000000" stroke="none" />
<ellipse cx="704" cy="544" rx="6" ry="6" fill="none" stroke-width="2" stroke-linejoin="bevel" stroke-linecap="round" stroke="#000000" />
<path d="M720,544 L710,544 " fill="none" stroke-width="2" stroke-linejoin="bevel" stroke-linecap="round" stroke="#000000" />
<path d="M864,592 L864,480 720,480 720,400 " fill="none" stroke-width="2" stroke-linejoin="bevel" stroke-linecap="round" stroke="#000000" />
<path d="M720,480 L720,544 " fill="none" stroke-width="2" stroke-linejoin="bevel" stroke-linecap="round" stroke="#000000" />
<path d="M608,400 L128,400 " fill="none" stroke-width="2" stroke-linejoin="bevel" stroke-linecap="round" stroke="#000000" />
<path d="M608,544 L384,544 " fill="none" stroke-width="2" stroke-linejoin="bevel" stroke-linecap="round" stroke="#000000" />
<path d="M720,320 L720,176 " fill="none" stroke-width="2" stroke-linejoin="bevel" stroke-linecap="round" stroke="#000000" />
<path d="M720,256 L1120,256 1120,592 " fill="none" stroke-width="2" stroke-linejoin="bevel" stroke-linecap="round" stroke="#000000" />
<g transform="matrix(   1    0   -0    1 624 224)" fill="#000000" >
<text stroke="none" font-family="Helvetica" font-size="40" ><tspan x="0" y="0">T</tspan>
</text></g>
<path d="M624,272 L656,272 " fill="none" stroke-width="2" stroke-linejoin="bevel" stroke-linecap="round" stroke="#000000" />
<g transform="matrix(   1    0   -0    1 624 304)" fill="#000000" >
<text stroke="none" font-family="Helvetica" font-size="40" ><tspan x="0" y="0">T</tspan>
</text></g>
<path d="M624,432 L656,432 " fill="none" stroke-width="2" stroke-linejoin="bevel" stroke-linecap="round" stroke="#000000" />
<g transform="matrix(   1    0   -0    1 624 464)" fill="#000000" >
<text stroke="none" font-family="Helvetica" font-size="40" ><tspan x="0" y="0">T</tspan>
</text></g>
<g transform="matrix(   1    0   -0    1 624 528)" fill="#000000" >
<text stroke="none" font-family="Helvetica" font-size="40" ><tspan x="0" y="0">T</tspan>
</text></g>
<ellipse cx="128" cy="400" rx="6" ry="6" fill="#000000" stroke="none" />
<ellipse cx="384" cy="544" rx="6" ry="6" fill="#000000" stroke="none" />
<path d="M128,176 L128,16 " fill="none" stroke-width="2" stroke-linejoin="bevel" stroke-linecap="round" stroke="#000000" />
<path d="M384,320 L384,80 480,80 " fill="none" stroke-width="2" stroke-linejoin="bevel" stroke-linecap="round" stroke="#000000" />
<path d="M128,16 L480,16 " fill="none" stroke-width="2" stroke-linejoin="bevel" stroke-linecap="round" stroke="#000000" />
<path d="M452,24 C462,19 465,19 480,16 C465,13 462,13 452,8 C454,14 454,18 452,24 " fill="#000000" stroke="none" />
<path d="M452,88 C462,83 465,83 480,80 C465,77 462,77 452,72 C454,78 454,82 452,88 " fill="#000000" stroke="none" />
<ellipse cx="128" cy="176" rx="6" ry="6" fill="#000000" stroke="none" />
<ellipse cx="384" cy="320" rx="6" ry="6" fill="#000000" stroke="none" />
<g transform="matrix(   1    0   -0    1 496  16)" fill="#000000" >
<text stroke="none" font-family="Helvetica" font-size="40" ><tspan x="0" y="0">vo-</tspan>
</text></g>
<g transform="matrix(   1    0   -0    1 496  80)" fill="#000000" >
<text stroke="none" font-family="Helvetica" font-size="40" ><tspan x="0" y="0">vo+</tspan>
</text></g>
</g>
</svg>
