<svg xmlns="http://www.w3.org/2000/svg"
   xmlns:xlink="http://www.w3.org/1999/xlink"
   version="1.1"
   id="tspc" width="100%" height="100%"  viewBox="-6 -6 902 655">
<desc>
XCircuit Version 3.8
File "tspc.ps" Page 2
</desc>
<g stroke="black">
<path d="M160,573 L160,537 128,537 128,481 160,481 160,445 " fill="none" stroke-width="2" stroke-linejoin="bevel" stroke-linecap="round" stroke="#000000" />
<path d="M116,537 L116,481 " fill="none" stroke-width="2" stroke-linejoin="bevel" stroke-linecap="round" stroke="#000000" />
<path d="M116,509 L96,509 " fill="none" stroke-width="2" stroke-linejoin="bevel" stroke-linecap="round" stroke="#000000" />
<path d="M132,545 C142,540 145,540 160,537 C145,534 142,534 132,529 C134,535 134,539 132,545 " fill="#000000" stroke="none" />
<path d="M160,221 L160,185 128,185 128,129 160,129 160,93 " fill="none" stroke-width="2" stroke-linejoin="bevel" stroke-linecap="round" stroke="#000000" />
<path d="M116,185 L116,129 " fill="none" stroke-width="2" stroke-linejoin="bevel" stroke-linecap="round" stroke="#000000" />
<path d="M116,157 L96,157 " fill="none" stroke-width="2" stroke-linejoin="bevel" stroke-linecap="round" stroke="#000000" />
<path d="M156,121 C146,126 143,126 128,129 C143,132 146,132 156,137 C154,131 154,127 156,121 " fill="#000000" stroke="none" />
<path d="M368,573 L368,537 336,537 336,481 368,481 368,445 " fill="none" stroke-width="2" stroke-linejoin="bevel" stroke-linecap="round" stroke="#000000" />
<path d="M324,537 L324,481 " fill="none" stroke-width="2" stroke-linejoin="bevel" stroke-linecap="round" stroke="#000000" />
<path d="M324,509 L304,509 " fill="none" stroke-width="2" stroke-linejoin="bevel" stroke-linecap="round" stroke="#000000" />
<path d="M340,545 C350,540 353,540 368,537 C353,534 350,534 340,529 C342,535 342,539 340,545 " fill="#000000" stroke="none" />
<path d="M160,397 L160,361 128,361 128,305 160,305 160,269 " fill="none" stroke-width="2" stroke-linejoin="bevel" stroke-linecap="round" stroke="#000000" />
<path d="M116,361 L116,305 " fill="none" stroke-width="2" stroke-linejoin="bevel" stroke-linecap="round" stroke="#000000" />
<path d="M116,333 L96,333 " fill="none" stroke-width="2" stroke-linejoin="bevel" stroke-linecap="round" stroke="#000000" />
<path d="M156,297 C146,302 143,302 128,305 C143,308 146,308 156,313 C154,307 154,303 156,297 " fill="#000000" stroke="none" />
<path d="M368,397 L368,361 336,361 336,305 368,305 368,269 " fill="none" stroke-width="2" stroke-linejoin="bevel" stroke-linecap="round" stroke="#000000" />
<path d="M324,361 L324,305 " fill="none" stroke-width="2" stroke-linejoin="bevel" stroke-linecap="round" stroke="#000000" />
<path d="M324,333 L304,333 " fill="none" stroke-width="2" stroke-linejoin="bevel" stroke-linecap="round" stroke="#000000" />
<path d="M340,369 C350,364 353,364 368,361 C353,358 350,358 340,353 C342,359 342,363 340,369 " fill="#000000" stroke="none" />
<path d="M368,221 L368,185 336,185 336,129 368,129 368,93 " fill="none" stroke-width="2" stroke-linejoin="bevel" stroke-linecap="round" stroke="#000000" />
<path d="M324,185 L324,129 " fill="none" stroke-width="2" stroke-linejoin="bevel" stroke-linecap="round" stroke="#000000" />
<path d="M324,157 L304,157 " fill="none" stroke-width="2" stroke-linejoin="bevel" stroke-linecap="round" stroke="#000000" />
<path d="M364,121 C354,126 351,126 336,129 C351,132 354,132 364,137 C362,131 362,127 364,121 " fill="#000000" stroke="none" />
<path d="M592,573 L592,537 560,537 560,481 592,481 592,445 " fill="none" stroke-width="2" stroke-linejoin="bevel" stroke-linecap="round" stroke="#000000" />
<path d="M548,537 L548,481 " fill="none" stroke-width="2" stroke-linejoin="bevel" stroke-linecap="round" stroke="#000000" />
<path d="M548,509 L528,509 " fill="none" stroke-width="2" stroke-linejoin="bevel" stroke-linecap="round" stroke="#000000" />
<path d="M564,545 C574,540 577,540 592,537 C577,534 574,534 564,529 C566,535 566,539 564,545 " fill="#000000" stroke="none" />
<path d="M592,397 L592,361 560,361 560,305 592,305 592,269 " fill="none" stroke-width="2" stroke-linejoin="bevel" stroke-linecap="round" stroke="#000000" />
<path d="M548,361 L548,305 " fill="none" stroke-width="2" stroke-linejoin="bevel" stroke-linecap="round" stroke="#000000" />
<path d="M548,333 L528,333 " fill="none" stroke-width="2" stroke-linejoin="bevel" stroke-linecap="round" stroke="#000000" />
<path d="M564,369 C574,364 577,364 592,361 C577,358 574,358 564,353 C566,359 566,363 564,369 " fill="#000000" stroke="none" />
<path d="M592,221 L592,185 560,185 560,129 592,129 592,93 " fill="none" stroke-width="2" stroke-linejoin="bevel" stroke-linecap="round" stroke="#000000" />
<path d="M548,185 L548,129 " fill="none" stroke-width="2" stroke-linejoin="bevel" stroke-linecap="round" stroke="#000000" />
<path d="M548,157 L528,157 " fill="none" stroke-width="2" stroke-linejoin="bevel" stroke-linecap="round" stroke="#000000" />
<path d="M588,121 C578,126 575,126 560,129 C575,132 578,132 588,137 C586,131 586,127 588,121 " fill="#000000" stroke="none" />
<path d="M96,157 L48,157 " fill="none" stroke-width="2" stroke-linejoin="bevel" stroke-linecap="round" stroke="#000000" />
<path d="M96,333 L64,333 " fill="none" stroke-width="2" stroke-linejoin="bevel" stroke-linecap="round" stroke="#000000" />
<path d="M64,333 L64,509 " fill="none" stroke-width="2" stroke-linejoin="bevel" stroke-linecap="round" stroke="#000000" />
<path d="M64,509 L112,509 " fill="none" stroke-width="2" stroke-linejoin="bevel" stroke-linecap="round" stroke="#000000" />
<path d="M160,397 L160,445 " fill="none" stroke-width="2" stroke-linejoin="bevel" stroke-linecap="round" stroke="#000000" />
<path d="M160,413 L240,413 240,333 304,333 " fill="none" stroke-width="2" stroke-linejoin="bevel" stroke-linecap="round" stroke="#000000" />
<path d="M272,323 A10,10 0 0,0 272,343 " fill="none" stroke-width="2" stroke-linejoin="bevel" stroke-linecap="round" stroke="#000000" />
<path d="M272,343 L272,349 " fill="none" stroke-width="2" stroke-linejoin="bevel" stroke-linecap="round" stroke="#000000" />
<path d="M272,323 L272,317 " fill="none" stroke-width="2" stroke-linejoin="bevel" stroke-linecap="round" stroke="#000000" />
<path d="M304,157 L272,157 272,317 " fill="none" stroke-width="2" stroke-linejoin="bevel" stroke-linecap="round" stroke="#000000" />
<path d="M272,349 L272,509 304,509 " fill="none" stroke-width="2" stroke-linejoin="bevel" stroke-linecap="round" stroke="#000000" />
<path d="M368,269 L368,205 " fill="none" stroke-width="2" stroke-linejoin="bevel" stroke-linecap="round" stroke="#000000" />
<path d="M368,397 L368,445 " fill="none" stroke-width="2" stroke-linejoin="bevel" stroke-linecap="round" stroke="#000000" />
<path d="M160,93 L160,61 592,61 592,93 " fill="none" stroke-width="2" stroke-linejoin="bevel" stroke-linecap="round" stroke="#000000" />
<path d="M368,93 L368,61 " fill="none" stroke-width="2" stroke-linejoin="bevel" stroke-linecap="round" stroke="#000000" />
<path d="M368,237 L480,237 480,157 528,157 " fill="none" stroke-width="2" stroke-linejoin="bevel" stroke-linecap="round" stroke="#000000" />
<path d="M480,237 L480,333 528,333 " fill="none" stroke-width="2" stroke-linejoin="bevel" stroke-linecap="round" stroke="#000000" />
<path d="M592,221 L592,269 " fill="none" stroke-width="2" stroke-linejoin="bevel" stroke-linecap="round" stroke="#000000" />
<path d="M592,397 L592,445 " fill="none" stroke-width="2" stroke-linejoin="bevel" stroke-linecap="round" stroke="#000000" />
<path d="M592,237 L656,237 " fill="none" stroke-width="2" stroke-linejoin="bevel" stroke-linecap="round" stroke="#000000" />
<path d="M528,509 L496,509 " fill="none" stroke-width="2" stroke-linejoin="bevel" stroke-linecap="round" stroke="#000000" />
<path d="M160,221 L160,269 " fill="none" stroke-width="2" stroke-linejoin="bevel" stroke-linecap="round" stroke="#000000" />
<g transform="matrix(   1    0   -0    1  32 141)" fill="#000000" >
<text stroke="none" font-family="Helvetica" font-size="40" ><tspan x="0" y="0">CLK</tspan>
</text></g>
<g transform="matrix(   1    0   -0    1 240 141)" fill="#000000" >
<text stroke="none" font-family="Helvetica" font-size="40" ><tspan x="0" y="0">CLK</tspan>
</text></g>
<g transform="matrix(   1    0   -0    1 464 493)" fill="#000000" >
<text stroke="none" font-family="Helvetica" font-size="40" ><tspan x="0" y="0">CLK</tspan>
</text></g>
<path d="M160,573 L160,589 592,589 592,573 " fill="none" stroke-width="2" stroke-linejoin="bevel" stroke-linecap="round" stroke="#000000" />
<path d="M368,589 L368,573 " fill="none" stroke-width="2" stroke-linejoin="bevel" stroke-linecap="round" stroke="#000000" />
<path d="M368,589 L368,621 " fill="none" stroke-width="2" stroke-linejoin="bevel" stroke-linecap="round" stroke="#000000" />
<path d="M336,621 L400,621 " fill="none" stroke-width="2" stroke-linejoin="bevel" stroke-linecap="round" stroke="#000000" />
<path d="M350,635 L386,635 " fill="none" stroke-width="2" stroke-linejoin="bevel" stroke-linecap="round" stroke="#000000" />
<path d="M364,649 L372,649 " fill="none" stroke-width="2" stroke-linejoin="bevel" stroke-linecap="round" stroke="#000000" />
<path d="M368,61 L368,29 " fill="none" stroke-width="2" stroke-linejoin="bevel" stroke-linecap="round" stroke="#000000" />
<path d="M336,29 L400,29 " fill="none" stroke-width="2" stroke-linejoin="bevel" stroke-linecap="round" stroke="#000000" />
<g transform="matrix( 0.9    0   -0  0.9 368  23)" fill="#000000" >
<text stroke="none" font-family="Times" font-size="40" ><tspan x="-36" y="0">Vdd</tspan>
</text></g>
<path d="M64,413 L0,413 " fill="none" stroke-width="2" stroke-linejoin="bevel" stroke-linecap="round" stroke="#000000" />
<path d="M644,245 C654,240 657,240 672,237 C657,234 654,234 644,229 C646,235 646,239 644,245 " fill="#000000" stroke="none" />
<path d="M36,421 C46,416 49,416 64,413 C49,410 46,410 36,405 C38,411 38,415 36,421 " fill="#000000" stroke="none" />
<g transform="matrix(   1    0   -0    1 112 285)" fill="#000000" >
<text stroke="none" font-family="Helvetica" font-size="40" ><tspan x="0" y="0">P1</tspan>
</text></g>
<g transform="matrix(   1    0   -0    1  96 109)" fill="#000000" >
<text stroke="none" font-family="Helvetica" font-size="40" ><tspan x="0" y="0">P2</tspan>
</text></g>
<g transform="matrix(   1    0   -0    1 304 109)" fill="#000000" >
<text stroke="none" font-family="Helvetica" font-size="40" ><tspan x="0" y="0">P3</tspan>
</text></g>
<g transform="matrix(   1    0   -0    1 528 109)" fill="#000000" >
<text stroke="none" font-family="Helvetica" font-size="40" ><tspan x="0" y="0">P4</tspan>
</text></g>
<g transform="matrix(   1    0   -0    1 112 461)" fill="#000000" >
<text stroke="none" font-family="Helvetica" font-size="40" ><tspan x="0" y="0">N1</tspan>
</text></g>
<g transform="matrix(   1    0   -0    1 304 461)" fill="#000000" >
<text stroke="none" font-family="Helvetica" font-size="40" ><tspan x="0" y="0">N2</tspan>
</text></g>
<g transform="matrix(   1    0   -0    1 304 285)" fill="#000000" >
<text stroke="none" font-family="Helvetica" font-size="40" ><tspan x="0" y="0">N3</tspan>
</text></g>
<g transform="matrix(   1    0   -0    1 528 285)" fill="#000000" >
<text stroke="none" font-family="Helvetica" font-size="40" ><tspan x="0" y="0">N4</tspan>
</text></g>
<g transform="matrix(   1    0   -0    1 528 461)" fill="#000000" >
<text stroke="none" font-family="Helvetica" font-size="40" ><tspan x="0" y="0">N5</tspan>
</text></g>
<g transform="matrix(   1    0   -0    1   0 397)" fill="#000000" >
<text stroke="none" font-family="Helvetica" font-size="40" ><tspan x="0" y="0">D</tspan>
</text></g>
<g transform="matrix(   1    0   -0    1 608 221)" fill="#000000" >
<text stroke="none" font-family="Helvetica" font-size="40" ><tspan x="0" y="0">Qbar</tspan>
</text></g>
<ellipse cx="368" cy="589" rx="6" ry="6" fill="#000000" stroke="none" />
<ellipse cx="368" cy="61" rx="6" ry="6" fill="#000000" stroke="none" />
<g transform="matrix(   1    0   -0    1 192 397)" fill="#000000" >
<text stroke="none" font-family="Helvetica" font-size="40" ><tspan x="0" y="0">X</tspan>
</text></g>
<g transform="matrix(   1    0   -0    1 416 221)" fill="#000000" >
<text stroke="none" font-family="Helvetica" font-size="40" ><tspan x="0" y="0">Y</tspan>
</text></g>
<g transform="matrix(   1    0   -0    1 896 285)" fill="#000000" >
<text stroke="none" font-family="Helvetica" font-size="40" ><tspan x="0" y="0"></tspan>
</text></g>
</g>
</svg>
